# xmcd CD database file
#
# Track frame offsets:
#	150
#	14671
#	31402
#	48084
#	69521
#	85909
#	102507
#	121297
#	138414
#	152508
#	170849
#	188514
#	203215
#
# Disc length: 2932 seconds
#
# Revision: 7
# Processed by: cddbd v1.5.2PL0 Copyright (c) Steve Scherf et al.
# Submitted via: CDex 1.50Beta7
#
DISCID=ad0b720d
DTITLE=Shakira  - Laundry Service
DYEAR=2001
DGENRE=Pop
TTITLE0=Objection (Tango)
TTITLE1=Underneath your clothes
TTITLE2=Whenever, wherever
TTITLE3=Rules
TTITLE4=The one
TTITLE5=Ready for the good times
TTITLE6=Fool
TTITLE7=Te dejo Madrid
TTITLE8=Poem to a horse
TTITLE9=Que me quedes Tu
TTITLE10=Eyes like yours (Ojos así)
TTITLE11=Suerte (Whenever, wherever)
TTITLE12=Te Aviso, te anuncio (Tango)
EXTD=YEAR: 2001
EXTT0=
EXTT1=
EXTT2=
EXTT3=
EXTT4=
EXTT5=
EXTT6=
EXTT7=
EXTT8=
EXTT9=
EXTT10=
EXTT11=
EXTT12=
PLAYORDER=
